<svg width="533" height="800" viewBox="0 0 533 800" fill="none" xmlns="http://www.w3.org/2000/svg">
<g id="Poker">
<rect id="PokerBase" width="533" height="800" rx="35" fill="white"/>
<rect id="PokerBase_2" x="16" y="25.0005" width="500" height="750" rx="35" fill="black"/>
<g id="Decorators">
<path id="?&#226;&#128;&#168;?" d="M54.77 106H48.05V98C48.05 96.4 48.69 95.0667 49.97 94L51.89 92.4C53.17 91.3333 54.45 90.8 55.73 90.8H60.93C61.89 90.8 62.5033 90.7733 62.77 90.72C63.0366 90.6133 63.41 90.3733 63.89 90C64.37 89.6267 64.6366 89.3333 64.69 89.12C64.7966 88.8533 64.85 88.32 64.85 87.52V74.88C64.85 74.08 64.7966 73.5733 64.69 73.36C64.6366 73.0933 64.37 72.7733 63.89 72.4C63.41 72.0267 63.0366 71.8133 62.77 71.76C62.5033 71.6533 61.89 71.6 60.93 71.6H47.65C46.69 71.6 46.0766 71.6533 45.81 71.76C45.5433 71.8133 45.17 72.0267 44.69 72.4C44.21 72.7733 43.9166 73.0933 43.81 73.36C43.7566 73.5733 43.73 74.08 43.73 74.88V76.4H37.01V73.2C37.01 71.6 37.65 70.2667 38.93 69.2L40.85 67.6C42.13 66.5333 43.41 66 44.69 66H63.89C65.17 66 66.45 66.5333 67.73 67.6L69.65 69.2C70.93 70.2667 71.57 71.6 71.57 73.2V89.76C71.57 90.9867 70.9833 92.08 69.81 93.04L67.73 94.8C66.45 95.8667 65.17 96.4 63.89 96.4H58.69C57.73 96.4 57.1166 96.4533 56.85 96.56C56.5833 96.6133 56.21 96.8267 55.73 97.2C55.25 97.5733 54.9566 97.8933 54.85 98.16C54.7966 98.3733 54.77 98.88 54.77 99.68V106ZM54.77 119.12V117.28C54.77 116.16 54.5566 115.387 54.13 114.96C53.7033 114.587 52.85 114.4 51.57 114.4H51.25C49.97 114.4 49.1433 114.587 48.77 114.96C48.3966 115.28 48.1833 115.547 48.13 115.76C48.0766 115.973 48.05 116.48 48.05 117.28V119.12C48.05 120.24 48.2633 121.013 48.69 121.44C49.1166 121.813 49.97 122 51.25 122H51.65C52.8766 122 53.6766 121.813 54.05 121.44C54.4233 121.12 54.6366 120.853 54.69 120.64C54.7433 120.427 54.77 119.92 54.77 119.12ZM54.77 186H48.05V178C48.05 176.4 48.69 175.067 49.97 174L51.89 172.4C53.17 171.333 54.45 170.8 55.73 170.8H60.93C61.89 170.8 62.5033 170.773 62.77 170.72C63.0366 170.613 63.41 170.373 63.89 170C64.37 169.627 64.6366 169.333 64.69 169.12C64.7966 168.853 64.85 168.32 64.85 167.52V154.88C64.85 154.08 64.7966 153.573 64.69 153.36C64.6366 153.093 64.37 152.773 63.89 152.4C63.41 152.027 63.0366 151.813 62.77 151.76C62.5033 151.653 61.89 151.6 60.93 151.6H47.65C46.69 151.6 46.0766 151.653 45.81 151.76C45.5433 151.813 45.17 152.027 44.69 152.4C44.21 152.773 43.9166 153.093 43.81 153.36C43.7566 153.573 43.73 154.08 43.73 154.88V156.4H37.01V153.2C37.01 151.6 37.65 150.267 38.93 149.2L40.85 147.6C42.13 146.533 43.41 146 44.69 146H63.89C65.17 146 66.45 146.533 67.73 147.6L69.65 149.2C70.93 150.267 71.57 151.6 71.57 153.2V169.76C71.57 170.987 70.9833 172.08 69.81 173.04L67.73 174.8C66.45 175.867 65.17 176.4 63.89 176.4H58.69C57.73 176.4 57.1166 176.453 56.85 176.56C56.5833 176.613 56.21 176.827 55.73 177.2C55.25 177.573 54.9566 177.893 54.85 178.16C54.7966 178.373 54.77 178.88 54.77 179.68V186ZM54.77 199.12V197.28C54.77 196.16 54.5566 195.387 54.13 194.96C53.7033 194.587 52.85 194.4 51.57 194.4H51.25C49.97 194.4 49.1433 194.587 48.77 194.96C48.3966 195.28 48.1833 195.547 48.13 195.76C48.0766 195.973 48.05 196.48 48.05 197.28V199.12C48.05 200.24 48.2633 201.013 48.69 201.44C49.1166 201.813 49.97 202 51.25 202H51.65C52.8766 202 53.6766 201.813 54.05 201.44C54.4233 201.12 54.6366 200.853 54.69 200.64C54.7433 200.427 54.77 199.92 54.77 199.12Z" fill="white"/>
<path id="?&#226;&#128;&#168;?_2" d="M478.228 647H484.948V639C484.948 637.4 484.308 636.067 483.028 635L481.108 633.4C479.828 632.333 478.548 631.8 477.268 631.8H472.068C471.108 631.8 470.495 631.773 470.228 631.72C469.961 631.613 469.588 631.373 469.108 631C468.628 630.627 468.361 630.333 468.308 630.12C468.201 629.853 468.148 629.32 468.148 628.52V615.88C468.148 615.08 468.201 614.573 468.308 614.36C468.361 614.093 468.628 613.773 469.108 613.4C469.588 613.027 469.961 612.813 470.228 612.76C470.495 612.653 471.108 612.6 472.068 612.6H485.348C486.308 612.6 486.921 612.653 487.188 612.76C487.455 612.813 487.828 613.027 488.308 613.4C488.788 613.773 489.081 614.093 489.188 614.36C489.241 614.573 489.268 615.08 489.268 615.88V617.4H495.988V614.2C495.988 612.6 495.348 611.267 494.068 610.2L492.148 608.6C490.868 607.533 489.588 607 488.308 607H469.108C467.828 607 466.548 607.533 465.268 608.6L463.348 610.2C462.068 611.267 461.428 612.6 461.428 614.2V630.76C461.428 631.987 462.015 633.08 463.188 634.04L465.268 635.8C466.548 636.867 467.828 637.4 469.108 637.4H474.308C475.268 637.4 475.881 637.453 476.148 637.56C476.415 637.613 476.788 637.827 477.268 638.2C477.748 638.573 478.041 638.893 478.148 639.16C478.201 639.373 478.228 639.88 478.228 640.68V647ZM478.228 660.12V658.28C478.228 657.16 478.441 656.387 478.868 655.96C479.295 655.587 480.148 655.4 481.428 655.4H481.748C483.028 655.4 483.855 655.587 484.228 655.96C484.601 656.28 484.815 656.547 484.868 656.76C484.921 656.973 484.948 657.48 484.948 658.28V660.12C484.948 661.24 484.735 662.013 484.308 662.44C483.881 662.813 483.028 663 481.748 663H481.348C480.121 663 479.321 662.813 478.948 662.44C478.575 662.12 478.361 661.853 478.308 661.64C478.255 661.427 478.228 660.92 478.228 660.12ZM478.228 727H484.948V719C484.948 717.4 484.308 716.067 483.028 715L481.108 713.4C479.828 712.333 478.548 711.8 477.268 711.8H472.068C471.108 711.8 470.495 711.773 470.228 711.72C469.961 711.613 469.588 711.373 469.108 711C468.628 710.627 468.361 710.333 468.308 710.12C468.201 709.853 468.148 709.32 468.148 708.52V695.88C468.148 695.08 468.201 694.573 468.308 694.36C468.361 694.093 468.628 693.773 469.108 693.4C469.588 693.027 469.961 692.813 470.228 692.76C470.495 692.653 471.108 692.6 472.068 692.6H485.348C486.308 692.6 486.921 692.653 487.188 692.76C487.455 692.813 487.828 693.027 488.308 693.4C488.788 693.773 489.081 694.093 489.188 694.36C489.241 694.573 489.268 695.08 489.268 695.88V697.4H495.988V694.2C495.988 692.6 495.348 691.267 494.068 690.2L492.148 688.6C490.868 687.533 489.588 687 488.308 687H469.108C467.828 687 466.548 687.533 465.268 688.6L463.348 690.2C462.068 691.267 461.428 692.6 461.428 694.2V710.76C461.428 711.987 462.015 713.08 463.188 714.04L465.268 715.8C466.548 716.867 467.828 717.4 469.108 717.4H474.308C475.268 717.4 475.881 717.453 476.148 717.56C476.415 717.613 476.788 717.827 477.268 718.2C477.748 718.573 478.041 718.893 478.148 719.16C478.201 719.373 478.228 719.88 478.228 720.68V727ZM478.228 740.12V738.28C478.228 737.16 478.441 736.387 478.868 735.96C479.295 735.587 480.148 735.4 481.428 735.4H481.748C483.028 735.4 483.855 735.587 484.228 735.96C484.601 736.28 484.815 736.547 484.868 736.76C484.921 736.973 484.948 737.48 484.948 738.28V740.12C484.948 741.24 484.735 742.013 484.308 742.44C483.881 742.813 483.028 743 481.748 743H481.348C480.121 743 479.321 742.813 478.948 742.44C478.575 742.12 478.361 741.853 478.308 741.64C478.255 741.427 478.228 740.92 478.228 740.12Z" fill="white"/>
</g>
<g id="VZF">
<line id="Line 18" x1="272.857" y1="607.46" x2="385.443" y2="187.282" stroke="white" stroke-width="21"/>
<line id="Line 19" y1="-10.5" x2="435" y2="-10.5" transform="matrix(-0.258819 -0.965926 -0.965926 0.258819 265.656 610.178)" stroke="white" stroke-width="21"/>
<line id="Line 20" x1="78.9058" y1="349.557" x2="167.406" y2="196.271" stroke="white" stroke-width="21"/>
<line id="Line 21" x1="71.999" y1="352.021" x2="436.999" y2="352.021" stroke="white" stroke-width="21"/>
<line id="Line 22" x1="429.349" y1="353.614" x2="162.613" y2="507.614" stroke="white" stroke-width="21"/>
<line id="Line 23" x1="460.999" y1="509.021" x2="152.999" y2="509.02" stroke="white" stroke-width="21"/>
</g>
</g>
</svg>
